<?xml version="1.0" encoding="UTF-8" standalone="no"?>
<svg
   id="b"
   data-name="Capa 2"
   width="393.984"
   height="369.193"
   viewBox="0 0 393.984 369.193"
   version="1.1"
   sodipodi:docname="logo-home-iso-white.svg"
   inkscape:version="1.1.2 (0a00cf5339, 2022-02-04)"
   xmlns:inkscape="http://www.inkscape.org/namespaces/inkscape"
   xmlns:sodipodi="http://sodipodi.sourceforge.net/DTD/sodipodi-0.dtd"
   xmlns="http://www.w3.org/2000/svg"
   xmlns:svg="http://www.w3.org/2000/svg">
  <defs
     id="defs12" />
  <sodipodi:namedview
     id="namedview10"
     pagecolor="#ffffff"
     bordercolor="#666666"
     borderopacity="1.0"
     inkscape:pageshadow="2"
     inkscape:pageopacity="0.0"
     inkscape:pagecheckerboard="0"
     showgrid="false"
     inkscape:zoom="2.2725242"
     inkscape:cx="197.13762"
     inkscape:cy="220.01966"
     inkscape:window-width="1920"
     inkscape:window-height="1011"
     inkscape:window-x="1080"
     inkscape:window-y="32"
     inkscape:window-maximized="1"
     inkscape:current-layer="b" />
  <path
     d="m 271.872,331.921 c -25.639,27.456 -54.109,28.543 -79.209,6.274 22.871,2.978 45.087,-7.663 64.239,-32.842 33.164,-43.602 99.599,-50.329 136.979,-13.871 -33.517,-40.039 -100.291,-40.039 -137.679,0 -35.293,37.794 -74.824,36.185 -108.509,0 -10.187,-10.943 -20.32,-18.148 -30.684,-21.699 l -0.583,-92.049 92.601,-44.096 102.262,44.096 7.843,70.012 3.667,0.051 -3.667,-76.962 L 209.027,118.24 98.922,170.835 v 96.444 c -5.473,0.327 -11.051,1.616 -16.768,3.835 2.091,-70.5 16.671,-148.255 26.778,-194.631 11.194,15.036 17.496,36.775 26.199,62.203 9.136,-27.607 -3.121,-51.278 -16.801,-67.35 0.541,-0.221 1.067,-0.444 1.634,-0.662 23.573,6.416 48.544,21.493 78.405,37.852 -10.788,-24.141 -29.348,-38.035 -49.062,-45.834 15.005,-3.019 33.39,-5.651 55.135,-7.896 C 175.155,46.956 147.14,41.509 126.318,49.586 139.745,37.916 159.603,24.009 185.732,7.921 154.734,13.8 126.105,21.418 111.296,39.175 99.019,15.627 66.831,6.687 31.573,0 57.703,16.088 77.56,29.995 90.987,41.665 70.165,33.588 42.15,39.035 12.863,46.875 42.169,49.901 65.425,53.622 82.424,58.061 52.822,61.513 16.891,74.221 0,112.017 34.216,93.271 62.021,76.18 88.647,71.922 72.904,87.665 54.971,114.288 65.511,146.139 75.911,115.752 82.877,90.62 98.876,75.925 c -3.079,8.196 -6.631,17.894 -10.733,29.369 -25.58,71.56 -26.432,147.247 -25.601,176.692 -3.923,2.78 -7.918,5.935 -12.004,9.495 l 1.747,34.593 c 32.222,-34.373 60.896,-38.84 92.819,-13.012 -11.113,1.435 -22.796,7.748 -35.546,18.858 l 1.379,27.302 c 26.446,-28.212 49.862,-30.911 76.285,-7.726 29.327,25.734 60.495,23.854 85.202,-8.629 26.174,-34.411 78.606,-39.721 108.107,-10.948 -26.452,-31.599 -79.152,-31.599 -108.66,0 z"
     fill="#001a70"
     id="path2"
     style="fill:#ffffff" />
  <path
     d="m 313.72,70.68 c -34.18,0 -63.351,21.374 -74.925,51.478 l 15.46,8.217 c 9.158,-25.634 33.646,-43.982 62.427,-43.982 36.607,0 66.283,29.676 66.283,66.283 0,31.643 -22.18,58.089 -51.836,64.685 l 0.997,11.701 c 35.453,-8.323 61.858,-40.127 61.858,-78.119 0,-44.328 -35.935,-80.264 -80.264,-80.264 z"
     fill="#f1bc7c"
     id="path4"
     style="fill:#ffffff" />
</svg>
