<?xml version="1.0" encoding="UTF-8"?>
<svg id="b" data-name="Capa 2" xmlns="http://www.w3.org/2000/svg" width="393.984" height="522.547" viewBox="0 0 393.984 522.547">
  <g id="c" data-name="Capa 1">
    <g>
      <g>
        <path d="M118.389,394.679c9.075,9.076,13.612,20.029,13.612,32.858s-4.537,23.783-13.612,32.858-20.029,13.613-32.858,13.613-23.784-4.537-32.858-13.613c-9.076-9.075-13.612-20.027-13.612-32.858s4.536-23.783,13.612-32.858c9.075-9.075,20.027-13.613,32.858-13.613s23.782,4.538,32.858,13.613ZM85.53,386.274c-11.397,0-21.123,4.028-29.18,12.084-8.056,8.058-12.084,17.784-12.084,29.18s4.028,21.132,12.084,29.207c8.056,8.076,17.782,12.114,29.18,12.114s21.122-4.037,29.18-12.114c8.056-8.075,12.084-17.81,12.084-29.207s-4.028-21.122-12.084-29.18c-8.058-8.056-17.784-12.084-29.18-12.084Z" fill="#f1bc7c"/>
        <path d="M197.894,438.235h-31.357l-12.624,34.698h-5.433l33.736-92.66,33.678,92.66h-5.377l-12.622-34.698ZM196.027,433.141l-13.811-37.981-13.811,37.981h27.623Z" fill="#f1bc7c"/>
        <path d="M262.938,422.783c-6.452-2.151-11.546-5.094-15.282-8.83-3.736-3.735-5.604-8.264-5.604-13.585,0-5.208,1.867-9.688,5.604-13.444,3.736-3.754,8.264-5.632,13.585-5.632,5.282,0,9.81,1.868,13.584,5.604,2.075,2,3.51,4.245,4.303,6.735l-4.586,1.812c-.678-1.849-1.792-3.547-3.338-5.094-2.756-2.717-6.077-4.075-9.962-4.075s-7.209,1.368-9.964,4.103c-2.755,2.737-4.131,6.066-4.131,9.991,0,3.887,1.377,7.208,4.131,9.962,2.567,2.528,6.114,4.849,10.642,6.962,7.245,2.34,13.339,5.981,18.283,10.924,5.244,5.207,7.869,11.51,7.869,18.905,0,7.434-2.624,13.774-7.869,19.019s-11.566,7.868-18.961,7.868-13.718-2.641-18.963-7.925c-4.188-4.188-6.698-9.056-7.528-14.603l4.811-1.755c.528,4.906,2.623,9.189,6.283,12.849,4.264,4.265,9.395,6.396,15.397,6.396,6.037,0,11.187-2.131,15.453-6.396,4.263-4.263,6.396-9.415,6.396-15.453,0-6-2.134-11.131-6.396-15.396-3.736-3.735-8.321-6.716-13.756-8.943Z" fill="#f1bc7c"/>
        <path d="M315.588,382.368v90.565h-5.094v-90.565h5.094Z" fill="#f1bc7c"/>
        <path d="M366.197,422.783c-6.452-2.151-11.546-5.094-15.282-8.83-3.736-3.735-5.604-8.264-5.604-13.585,0-5.208,1.867-9.688,5.604-13.444,3.736-3.754,8.264-5.632,13.585-5.632,5.282,0,9.81,1.868,13.584,5.604,2.075,2,3.51,4.245,4.303,6.735l-4.586,1.812c-.678-1.849-1.792-3.547-3.338-5.094-2.756-2.717-6.077-4.075-9.962-4.075s-7.209,1.368-9.964,4.103c-2.755,2.737-4.131,6.066-4.131,9.991,0,3.887,1.377,7.208,4.131,9.962,2.567,2.528,6.114,4.849,10.642,6.962,7.245,2.34,13.339,5.981,18.283,10.924,5.244,5.207,7.869,11.51,7.869,18.905,0,7.434-2.624,13.774-7.869,19.019s-11.566,7.868-18.961,7.868-13.718-2.641-18.963-7.925c-4.188-4.188-6.698-9.056-7.528-14.603l4.811-1.755c.528,4.906,2.623,9.189,6.283,12.849,4.264,4.265,9.395,6.396,15.397,6.396,6.037,0,11.187-2.131,15.453-6.396,4.263-4.263,6.396-9.415,6.396-15.453,0-6-2.134-11.131-6.396-15.396-3.736-3.735-8.321-6.716-13.756-8.943Z" fill="#f1bc7c"/>
        <path d="M47.713,491.917v30.25h-1.803v-30.25h-8.113v-1.803h18.03v1.803h-8.113Z" fill="#001a70"/>
        <path d="M76.598,490.114v1.803h-14.223v13.322h14.223v1.803h-14.223v13.322h14.223v1.803h-16.026v-32.053h16.026Z" fill="#001a70"/>
        <path d="M82.846,490.114h1.983l16.467,28.507v-28.507h1.803v32.053h-1.803l-16.647-28.787v28.787h-1.803v-32.053Z" fill="#001a70"/>
        <path d="M125.957,490.114v1.803h-14.223v13.322h14.223v1.803h-14.223v13.322h14.223v1.803h-16.026v-32.053h16.026Z" fill="#001a70"/>
        <path d="M140.079,511.028c-.173.014-.353.02-.541.02h-5.449v11.118h-1.803v-32.053h8.414c2.444.334,4.52,1.356,6.23,3.065,2.043,2.043,3.065,4.507,3.065,7.392s-1.022,5.369-3.065,7.412c-1.415,1.416-3.038,2.344-4.868,2.785l7.392,11.399h-2.224l-7.152-11.138ZM134.089,491.937v17.289h5.449c2.377,0,4.41-.844,6.1-2.534,1.69-1.689,2.534-3.729,2.534-6.12s-.844-4.427-2.534-6.11-3.723-2.524-6.1-2.524h-5.449Z" fill="#001a70"/>
        <path d="M159.096,490.114v32.053h-1.803v-32.053h1.803Z" fill="#001a70"/>
        <path d="M182.318,490.114v1.803h-12.22v13.322h12.22v1.803h-12.22v15.125h-1.803v-32.053h14.023Z" fill="#001a70"/>
        <path d="M205.495,490.114v1.803h-14.223v13.322h14.223v1.803h-14.223v13.322h14.223v1.803h-16.026v-32.053h16.026Z" fill="#001a70"/>
        <path d="M234.868,511.028c-.173.014-.353.02-.541.02h-5.449v11.118h-1.803v-32.053h8.414c2.444.334,4.52,1.356,6.23,3.065,2.043,2.043,3.065,4.507,3.065,7.392s-1.022,5.369-3.065,7.412c-1.415,1.416-3.038,2.344-4.868,2.785l7.392,11.399h-2.224l-7.152-11.138ZM228.878,491.937v17.289h5.449c2.377,0,4.41-.844,6.1-2.534,1.69-1.689,2.534-3.729,2.534-6.12s-.844-4.427-2.534-6.11-3.723-2.524-6.1-2.524h-5.449Z" fill="#001a70"/>
        <path d="M266.763,490.114v1.803h-14.223v13.322h14.223v1.803h-14.223v13.322h14.223v1.803h-16.026v-32.053h16.026Z" fill="#001a70"/>
        <path d="M274.12,490.114h1.983l16.467,28.507v-28.507h1.803v32.053h-1.803l-16.647-28.787v28.787h-1.803v-32.053Z" fill="#001a70"/>
        <path d="M309.896,491.917v30.25h-1.803v-30.25h-8.113v-1.803h18.03v1.803h-8.113Z" fill="#001a70"/>
        <path d="M337.639,509.886h-11.098l-4.467,12.28h-1.923l11.94-32.794,11.92,32.794h-1.903l-4.467-12.28ZM336.978,508.083l-4.888-13.442-4.888,13.442h9.776Z" fill="#001a70"/>
        <path d="M350.231,522.167v-32.053h1.803v30.25h12.42v1.803h-14.223Z" fill="#001a70"/>
        <path d="M379.452,504.417c-2.284-.761-4.087-1.803-5.409-3.125s-1.983-2.925-1.983-4.808c0-1.843.661-3.429,1.983-4.758,1.322-1.329,2.925-1.993,4.808-1.993,1.87,0,3.473.661,4.808,1.983.734.708,1.242,1.502,1.523,2.384l-1.623.641c-.24-.654-.634-1.255-1.182-1.803-.974-.962-2.151-1.442-3.526-1.442s-2.551.484-3.526,1.452c-.974.969-1.462,2.147-1.462,3.536,0,1.376.488,2.551,1.462,3.526.909.895,2.164,1.716,3.766,2.464,2.564.829,4.721,2.117,6.471,3.866,1.856,1.843,2.785,4.074,2.785,6.691,0,2.631-.929,4.875-2.785,6.731-1.856,1.857-4.094,2.785-6.711,2.785s-4.855-.934-6.711-2.805c-1.482-1.482-2.371-3.205-2.664-5.169l1.703-.621c.187,1.736.929,3.253,2.224,4.548,1.51,1.51,3.325,2.264,5.449,2.264,2.136,0,3.959-.754,5.469-2.264,1.51-1.509,2.264-3.332,2.264-5.469,0-2.124-.754-3.939-2.264-5.449-1.322-1.322-2.945-2.377-4.868-3.165Z" fill="#001a70"/>
      </g>
      <path d="M271.872,331.921c-25.639,27.456-54.109,28.543-79.209,6.274,22.871,2.978,45.087-7.663,64.239-32.842,33.164-43.602,99.599-50.329,136.979-13.871-33.517-40.039-100.291-40.039-137.679,0-35.293,37.794-74.824,36.185-108.509,0-10.187-10.943-20.32-18.148-30.684-21.699l-.583-92.049,92.601-44.096,102.262,44.096,7.843,70.012,3.667.051-3.667-76.962-110.105-52.595-110.105,52.595v96.444c-5.473.327-11.051,1.616-16.768,3.835,2.091-70.5,16.671-148.255,26.778-194.631,11.194,15.036,17.496,36.775,26.199,62.203,9.136-27.607-3.121-51.278-16.801-67.35.541-.221,1.067-.444,1.634-.662,23.573,6.416,48.544,21.493,78.405,37.852-10.788-24.141-29.348-38.035-49.062-45.834,15.005-3.019,33.39-5.651,55.135-7.896-29.287-7.84-57.302-13.287-78.124-5.21,13.427-11.67,33.285-25.577,59.414-41.665-30.998,5.879-59.627,13.497-74.436,31.254C99.019,15.627,66.831,6.687,31.573,0c26.13,16.088,45.987,29.995,59.414,41.665-20.822-8.077-48.837-2.63-78.124,5.21,29.306,3.026,52.562,6.747,69.561,11.186C52.822,61.513,16.891,74.221,0,112.017c34.216-18.746,62.021-35.837,88.647-40.095-15.743,15.743-33.676,42.366-23.136,74.217,10.4-30.387,17.366-55.519,33.365-70.214-3.079,8.196-6.631,17.894-10.733,29.369-25.58,71.56-26.432,147.247-25.601,176.692-3.923,2.78-7.918,5.935-12.004,9.495l1.747,34.593c32.222-34.373,60.896-38.84,92.819-13.012-11.113,1.435-22.796,7.748-35.546,18.858l1.379,27.302c26.446-28.212,49.862-30.911,76.285-7.726,29.327,25.734,60.495,23.854,85.202-8.629,26.174-34.411,78.606-39.721,108.107-10.948-26.452-31.599-79.152-31.599-108.66,0Z" fill="#001a70"/>
      <path d="M313.72,70.68c-34.18,0-63.351,21.374-74.925,51.478l15.46,8.217c9.158-25.634,33.646-43.982,62.427-43.982,36.607,0,66.283,29.676,66.283,66.283,0,31.643-22.18,58.089-51.836,64.685l.997,11.701c35.453-8.323,61.858-40.127,61.858-78.119,0-44.328-35.935-80.264-80.264-80.264Z" fill="#f1bc7c"/>
    </g>
  </g>
</svg>