<?xml version="1.0" encoding="UTF-8"?>
<svg id="b" data-name="Capa 2" xmlns="http://www.w3.org/2000/svg" width="392.189" height="521.585" viewBox="0 0 392.189 521.585">
  <g id="c" data-name="Capa 1">
    <g>
      <g>
        <path d="M270.705,330.496c-25.529,27.338-53.877,28.421-78.869,6.247,22.772,2.965,44.893-7.63,63.963-32.701,33.022-43.414,99.171-50.113,136.391-13.812-33.373-39.867-99.86-39.867-137.088,0-35.142,37.632-74.503,36.029-108.043,0-10.143-10.896-20.233-18.07-30.552-21.605l-.58-91.654,92.204-43.906,101.823,43.906,7.81,69.711,3.651.051-3.651-76.632-109.633-52.369-109.633,52.369v96.03c-5.45.326-11.004,1.61-16.696,3.819,2.082-70.197,16.599-147.618,26.663-193.795,11.146,14.972,17.421,36.617,26.086,61.936,9.096-27.489-3.108-51.058-16.729-67.061.539-.22,1.063-.442,1.627-.659,23.472,6.389,48.336,21.401,78.068,37.69-10.742-24.037-29.222-37.872-48.851-45.637,14.94-3.006,33.246-5.626,54.898-7.862-29.161-7.806-57.056-13.23-77.788-5.187,13.369-11.62,33.142-25.467,59.159-41.486-30.865,5.854-59.371,13.439-74.116,31.12C98.594,15.56,66.544,6.659,31.437,0c26.017,16.019,45.79,29.866,59.159,41.486-20.732-8.043-48.627-2.619-77.788,5.187,29.181,3.013,52.336,6.718,69.262,11.138C52.595,61.249,16.818,73.902,0,111.536c34.069-18.666,61.755-35.683,88.266-39.923-15.676,15.675-33.532,42.184-23.036,73.898,10.355-30.257,17.292-55.281,33.222-69.912-3.065,8.161-6.602,17.817-10.687,29.243-25.47,71.253-26.319,146.615-25.491,175.933-3.906,2.769-7.884,5.91-11.952,9.455l1.74,34.445c32.084-34.226,60.634-38.673,92.421-12.956-11.066,1.429-22.698,7.715-35.394,18.777l1.373,27.185c26.333-28.091,49.648-30.779,75.958-7.693,29.201,25.623,60.235,23.752,84.836-8.592,26.062-34.263,78.268-39.55,107.643-10.901-26.339-31.463-78.812-31.463-108.193,0Z" fill="#fff"/>
        <path d="M256.353,122.692c-1.193,2.575-2.249,5.38-3.517,7.975l-15.323-8.226,3.768-8.164s15.102,8.385,15.071,8.415Z" fill="#fff"/>
        <path d="M261.996,113.659c-.06.03-.091.06-.091.091-1.871,2.112-4.58,7.028-4.61,7.058l-14.318-9.985,4.961-7.284,14.058,10.12Z" fill="#fff"/>
        <path d="M268.283,106.214c-.06.03-5.65,6.275-5.65,6.305l-12.608-11.677,5.512-6.158,12.746,11.53Z" fill="#fff"/>
        <path d="M275.506,99.897c-.06,0-6.375,5.466-6.405,5.526l-11.123-13.189,6.79-5.462,10.738,13.125Z" fill="#fff"/>
        <path d="M283.777,94.709c-2.535,1.297-7.394,4.466-7.454,4.497l-8.782-14.516,7.424-4.527,8.812,14.547Z" fill="#fff"/>
        <path d="M289.749,91.874c-1.811.694-3.561,1.479-5.281,2.354l-6.675-15.242,5.312-2.324,6.644,15.212Z" fill="#fff"/>
        <path d="M297.491,89.218c-1.871.483-3.742,1.056-5.553,1.72l-4.626-15.846,5.583-1.599,4.595,15.726Z" fill="#fff"/>
        <path d="M305.722,87.46c-1.932.241-3.833.543-5.704.966l-2.533-15.846,5.764-.845,2.473,15.726Z" fill="#fff"/>
        <path d="M314.105,86.791c-1.962,0-3.893.091-5.794.272l-.481-15.774,5.795-.091.48,15.593Z" fill="#fff"/>
        <path d="M324.677,72.14l-1.531,15.257c-1.901-.241-3.833-.423-5.795-.483l1.561-15.439,5.764.664Z" fill="#fff"/>
        <path d="M333.657,74.15l-3.482,14.515c-.936-.211-1.871-.423-2.837-.604l3.482-14.636,2.837.724Z" fill="#fff"/>
        <path d="M342.762,77.415l-5.012,13.596c-.905-.362-1.811-.664-2.746-.966l5.042-13.717,2.716,1.086Z" fill="#fff"/>
        <path d="M352.433,82.251l-6.715,12.227c-.845-.453-1.69-.906-2.596-1.298l6.776-12.378,2.535,1.449Z" fill="#fff"/>
        <path d="M360.722,87.777l-7.929,11.13c-.785-.574-1.6-1.117-2.414-1.629l8.02-11.251,2.324,1.751Z" fill="#fff"/>
        <path d="M369.012,95.25l-9.024,9.491c-.694-.694-1.418-1.328-2.173-1.931l9.114-9.612,2.082,2.052Z" fill="#fff"/>
        <path d="M375.794,103.162l-9.798,8.016c-.453-.573-.936-1.117-1.449-1.63l9.919-8.107,1.328,1.72Z" fill="#fff"/>
        <path d="M381.634,112.017l-10.362,6.594c-.392-.634-.785-1.237-1.207-1.841l10.482-6.654,1.086,1.901Z" fill="#fff"/>
        <path d="M386.218,121.813l-10.944,4.609c-.302-.664-.634-1.328-.966-1.962l11.065-4.669.845,2.022Z" fill="#fff"/>
        <path d="M389.421,131.547l-11.234,3.009c-.211-.694-.423-1.388-.694-2.052l11.355-3.039.573,2.083Z" fill="#fff"/>
        <path d="M391.305,142.536l-11.164,1.266c-.121-.724-.241-1.449-.392-2.143l11.254-1.296.302,2.173Z" fill="#fff"/>
        <path d="M391.619,150.758v1.449l-10.949.028c0-.483-.03-.996-.06-1.479l11.01.002Z" fill="#fff"/>
        <path d="M391.104,160.496l-.181,1.449-10.714-1.418c.06-.483.091-.966.121-1.449l10.774,1.419Z" fill="#fff"/>
        <path d="M388.871,171.763l-.392,1.418-10.185-2.918c.121-.453.211-.935.332-1.419l10.246,2.919Z" fill="#fff"/>
        <path d="M385.254,182.152l-.543,1.328-9.568-4.38c.211-.423.392-.875.543-1.328l9.568,4.38Z" fill="#fff"/>
        <path d="M379.218,193.546l-.724,1.238-8.526-6.045c.272-.422.513-.845.694-1.297l8.556,6.104Z" fill="#fff"/>
        <path d="M372.165,203.002l-.453.573-7.635-7.138c.151-.181.302-.392.423-.603l7.665,7.168Z" fill="#fff"/>
        <path d="M365.129,210.221l-.513.514-6.66-8.277c.181-.181.362-.362.513-.543l6.66,8.307Z" fill="#fff"/>
        <path d="M358.156,215.871l-.573.452-6.026-9.001c.211-.151.392-.302.573-.452l6.026,9.001Z" fill="#fff"/>
        <path d="M349.425,221.236l-.634.362-4.855-9.871c.211-.12.423-.211.604-.362l4.885,9.871Z" fill="#fff"/>
        <path d="M338.366,226.119l-.664.272-3.528-10.746c.241-.06.453-.151.664-.272l3.528,10.746Z" fill="#fff"/>
      </g>
      <g>
        <path d="M117.72,393.717c9.075,9.076,13.612,20.029,13.612,32.858s-4.537,23.783-13.612,32.858-20.029,13.613-32.858,13.613-23.784-4.537-32.858-13.613c-9.076-9.075-13.612-20.027-13.612-32.858s4.536-23.783,13.612-32.858c9.075-9.075,20.027-13.613,32.858-13.613s23.782,4.538,32.858,13.613ZM84.862,385.312c-11.397,0-21.123,4.028-29.18,12.084-8.056,8.058-12.084,17.784-12.084,29.18s4.028,21.132,12.084,29.207c8.056,8.076,17.782,12.114,29.18,12.114s21.122-4.037,29.18-12.114c8.056-8.075,12.084-17.81,12.084-29.207s-4.028-21.122-12.084-29.18c-8.058-8.056-17.784-12.084-29.18-12.084Z" fill="#fff"/>
        <path d="M197.226,437.273h-31.357l-12.624,34.698h-5.433l33.736-92.66,33.678,92.66h-5.377l-12.622-34.698ZM195.358,432.179l-13.811-37.981-13.811,37.981h27.623Z" fill="#fff"/>
        <path d="M262.27,421.82c-6.452-2.151-11.546-5.094-15.282-8.83-3.736-3.735-5.604-8.264-5.604-13.585,0-5.208,1.867-9.688,5.604-13.444,3.736-3.754,8.264-5.632,13.585-5.632,5.282,0,9.81,1.868,13.584,5.604,2.075,2,3.51,4.245,4.303,6.735l-4.586,1.812c-.678-1.849-1.792-3.547-3.338-5.094-2.756-2.717-6.077-4.075-9.962-4.075s-7.209,1.368-9.964,4.103c-2.755,2.737-4.131,6.066-4.131,9.991,0,3.887,1.377,7.208,4.131,9.962,2.567,2.528,6.114,4.849,10.642,6.962,7.245,2.34,13.339,5.981,18.283,10.924,5.244,5.207,7.869,11.51,7.869,18.905,0,7.434-2.624,13.774-7.869,19.019s-11.566,7.868-18.961,7.868-13.718-2.641-18.963-7.925c-4.188-4.188-6.698-9.056-7.528-14.603l4.811-1.755c.528,4.906,2.623,9.189,6.283,12.849,4.264,4.265,9.395,6.396,15.397,6.396,6.037,0,11.187-2.131,15.453-6.396,4.263-4.263,6.396-9.415,6.396-15.453,0-6-2.134-11.131-6.396-15.396-3.736-3.735-8.321-6.716-13.756-8.943Z" fill="#fff"/>
        <path d="M314.92,381.406v90.565h-5.094v-90.565h5.094Z" fill="#fff"/>
        <path d="M365.529,421.82c-6.452-2.151-11.546-5.094-15.282-8.83-3.736-3.735-5.604-8.264-5.604-13.585,0-5.208,1.867-9.688,5.604-13.444,3.736-3.754,8.264-5.632,13.585-5.632,5.282,0,9.81,1.868,13.584,5.604,2.075,2,3.51,4.245,4.303,6.735l-4.586,1.812c-.678-1.849-1.792-3.547-3.338-5.094-2.756-2.717-6.077-4.075-9.962-4.075s-7.209,1.368-9.964,4.103c-2.755,2.737-4.131,6.066-4.131,9.991,0,3.887,1.377,7.208,4.131,9.962,2.567,2.528,6.114,4.849,10.642,6.962,7.245,2.34,13.339,5.981,18.283,10.924,5.244,5.207,7.869,11.51,7.869,18.905,0,7.434-2.624,13.774-7.869,19.019s-11.566,7.868-18.961,7.868-13.718-2.641-18.963-7.925c-4.188-4.188-6.698-9.056-7.528-14.603l4.811-1.755c.528,4.906,2.623,9.189,6.283,12.849,4.264,4.265,9.395,6.396,15.397,6.396,6.037,0,11.187-2.131,15.453-6.396,4.263-4.263,6.396-9.415,6.396-15.453,0-6-2.134-11.131-6.396-15.396-3.736-3.735-8.321-6.716-13.756-8.943Z" fill="#fff"/>
        <path d="M47.045,490.954v30.25h-1.803v-30.25h-8.113v-1.803h18.03v1.803h-8.113Z" fill="#fff"/>
        <path d="M75.93,489.152v1.803h-14.223v13.322h14.223v1.803h-14.223v13.322h14.223v1.803h-16.026v-32.053h16.026Z" fill="#fff"/>
        <path d="M82.177,489.152h1.983l16.467,28.507v-28.507h1.803v32.053h-1.803l-16.647-28.787v28.787h-1.803v-32.053Z" fill="#fff"/>
        <path d="M125.288,489.152v1.803h-14.223v13.322h14.223v1.803h-14.223v13.322h14.223v1.803h-16.026v-32.053h16.026Z" fill="#fff"/>
        <path d="M139.41,510.066c-.173.014-.353.02-.541.02h-5.449v11.118h-1.803v-32.053h8.414c2.444.334,4.52,1.356,6.23,3.065,2.043,2.043,3.065,4.507,3.065,7.392s-1.022,5.369-3.065,7.412c-1.415,1.416-3.038,2.344-4.868,2.785l7.392,11.399h-2.224l-7.152-11.138ZM133.42,490.975v17.289h5.449c2.377,0,4.41-.844,6.1-2.534,1.69-1.689,2.534-3.729,2.534-6.12s-.844-4.427-2.534-6.11-3.723-2.524-6.1-2.524h-5.449Z" fill="#fff"/>
        <path d="M158.427,489.152v32.053h-1.803v-32.053h1.803Z" fill="#fff"/>
        <path d="M181.65,489.152v1.803h-12.22v13.322h12.22v1.803h-12.22v15.125h-1.803v-32.053h14.023Z" fill="#fff"/>
        <path d="M204.827,489.152v1.803h-14.223v13.322h14.223v1.803h-14.223v13.322h14.223v1.803h-16.026v-32.053h16.026Z" fill="#fff"/>
        <path d="M234.199,510.066c-.173.014-.353.02-.541.02h-5.449v11.118h-1.803v-32.053h8.414c2.444.334,4.52,1.356,6.23,3.065,2.043,2.043,3.065,4.507,3.065,7.392s-1.022,5.369-3.065,7.412c-1.415,1.416-3.038,2.344-4.868,2.785l7.392,11.399h-2.224l-7.152-11.138ZM228.21,490.975v17.289h5.449c2.377,0,4.41-.844,6.1-2.534,1.69-1.689,2.534-3.729,2.534-6.12s-.844-4.427-2.534-6.11-3.723-2.524-6.1-2.524h-5.449Z" fill="#fff"/>
        <path d="M266.095,489.152v1.803h-14.223v13.322h14.223v1.803h-14.223v13.322h14.223v1.803h-16.026v-32.053h16.026Z" fill="#fff"/>
        <path d="M273.451,489.152h1.983l16.467,28.507v-28.507h1.803v32.053h-1.803l-16.647-28.787v28.787h-1.803v-32.053Z" fill="#fff"/>
        <path d="M309.228,490.954v30.25h-1.803v-30.25h-8.113v-1.803h18.03v1.803h-8.113Z" fill="#fff"/>
        <path d="M336.97,508.924h-11.098l-4.467,12.28h-1.923l11.94-32.794,11.92,32.794h-1.903l-4.467-12.28ZM336.309,507.121l-4.888-13.442-4.888,13.442h9.776Z" fill="#fff"/>
        <path d="M349.563,521.204v-32.053h1.803v30.25h12.42v1.803h-14.223Z" fill="#fff"/>
        <path d="M378.784,503.455c-2.284-.761-4.087-1.803-5.409-3.125s-1.983-2.925-1.983-4.808c0-1.843.661-3.429,1.983-4.758,1.322-1.329,2.925-1.993,4.808-1.993,1.87,0,3.473.661,4.808,1.983.734.708,1.242,1.502,1.523,2.384l-1.623.641c-.24-.654-.634-1.255-1.182-1.803-.974-.962-2.151-1.442-3.526-1.442s-2.551.484-3.526,1.452c-.974.969-1.462,2.147-1.462,3.536,0,1.376.488,2.551,1.462,3.526.909.895,2.164,1.716,3.766,2.464,2.564.829,4.721,2.117,6.471,3.866,1.856,1.843,2.785,4.074,2.785,6.691,0,2.631-.929,4.875-2.785,6.731-1.856,1.857-4.094,2.785-6.711,2.785s-4.855-.934-6.711-2.805c-1.482-1.482-2.371-3.205-2.664-5.169l1.703-.621c.187,1.736.929,3.253,2.224,4.548,1.51,1.51,3.325,2.264,5.449,2.264,2.136,0,3.959-.754,5.469-2.264,1.51-1.509,2.264-3.332,2.264-5.469,0-2.124-.754-3.939-2.264-5.449-1.322-1.322-2.945-2.377-4.868-3.165Z" fill="#fff"/>
      </g>
    </g>
  </g>
</svg>